<?xml version="1.0" standalone="no"?>
<!DOCTYPE svg PUBLIC "-//W3C//DTD SVG 20010904//EN"
 "http://www.w3.org/TR/2001/REC-SVG-20010904/DTD/svg10.dtd">
<svg version="1.0" xmlns="http://www.w3.org/2000/svg"
 width="585.000000pt" height="238.000000pt" viewBox="0 0 585.000000 238.000000"
 preserveAspectRatio="xMidYMid meet">
<metadata>
Created by potrace 1.16, written by Peter Selinger 2001-2019
</metadata>
<g transform="translate(0.000000,238.000000) scale(0.100000,-0.100000)"
fill="#000000" stroke="none">
<path d="M3682 2371 c-8 -4 -12 -19 -10 -32 3 -24 3 -24 138 -24 122 0 135 2
138 18 8 39 -14 47 -137 47 -64 0 -122 -4 -129 -9z"/>
<path d="M2040 2230 c-16 -16 -20 -33 -20 -83 0 -75 18 -107 60 -107 47 0 60
22 60 105 0 54 -4 78 -16 89 -21 22 -60 20 -84 -4z"/>
<path d="M2166 2171 c-13 -20 25 -41 114 -65 97 -26 313 -66 356 -66 24 0 25
0 7 23 -14 19 -33 26 -101 36 -46 6 -145 27 -220 46 -153 39 -149 38 -156 26z"/>
<path d="M3682 2061 c-8 -4 -12 -19 -10 -32 3 -24 3 -24 138 -24 122 0 135 2
138 18 8 39 -14 47 -137 47 -64 0 -122 -4 -129 -9z"/>
<path d="M2012 1980 c-12 -11 -24 -31 -27 -43 -3 -12 -4 -244 -3 -515 l3 -494
28 -24 c51 -43 153 -30 223 29 47 39 66 90 76 197 18 200 91 269 272 257 133
-8 798 -87 839 -99 50 -15 125 -82 148 -133 32 -71 26 -107 -86 -454 -58 -179
-105 -332 -105 -339 0 -7 11 -24 25 -37 l24 -25 421 0 421 0 24 25 c14 13 25
30 25 38 0 8 -17 50 -37 93 l-38 79 -5 570 -5 570 -27 57 c-56 120 -158 196
-292 218 -104 16 -345 -13 -1041 -126 -305 -50 -345 -54 -398 -45 -104 18
-171 63 -280 189 -27 30 -33 32 -96 32 -54 0 -72 -4 -89 -20z"/>
<path d="M1780 1388 c0 -56 31 -256 50 -326 41 -147 123 -282 171 -282 29 0
23 29 -17 73 -68 74 -120 224 -145 413 -9 68 -18 98 -36 120 l-23 29 0 -27z"/>
<path d="M4280 810 l0 -200 53 21 c28 11 58 27 65 36 8 12 12 59 12 148 0 149
-2 152 -79 180 -24 8 -45 15 -47 15 -2 0 -4 -90 -4 -200z"/>
<path d="M2040 840 c0 -5 9 -19 21 -31 20 -20 21 -31 19 -206 -1 -147 2 -184
12 -181 10 4 13 47 13 186 0 100 3 182 8 182 11 0 47 38 47 50 0 6 -27 10 -60
10 -33 0 -60 -4 -60 -10z"/>
<path d="M1902 224 c-28 -19 -29 -67 -2 -94 20 -20 33 -20 1253 -20 1367 0
1277 -5 1277 64 0 71 102 66 -1271 66 -1101 0 -1237 -2 -1257 -16z"/>
</g>
</svg>
